<?xml version="1.0" standalone="no"?>
<!DOCTYPE svg PUBLIC "-//W3C//DTD SVG 20010904//EN"
 "http://www.w3.org/TR/2001/REC-SVG-20010904/DTD/svg10.dtd">
<svg version="1.0" xmlns="http://www.w3.org/2000/svg"
 width="540.000000pt" height="540.000000pt" viewBox="0 0 540.000000 540.000000"
 preserveAspectRatio="xMidYMid meet">

<g transform="translate(0.000000,540.000000) scale(0.100000,-0.100000)"
fill="#000000" stroke="none">
<path d="M610 3470 l0 -540 83 0 c75 0 83 -2 84 -19 1 -14 -3 -18 -13 -14 -15
6 -69 -25 -60 -34 3 -3 13 0 21 7 14 11 21 11 47 -5 29 -17 31 -17 25 -1 -4
11 -3 15 4 10 21 -13 79 -22 79 -12 0 12 101 8 118 -5 7 -5 16 -6 20 -2 4 4 2
10 -5 12 -7 2 -9 11 -6 20 5 12 1 14 -18 8 -21 -7 -22 -6 -11 8 11 13 6 17
-42 28 l-56 12 0 194 0 193 530 0 530 0 0 113 0 112 -529 -3 -530 -2 -3 107
c-2 60 -2 111 0 116 2 4 257 7 568 7 l564 0 0 115 0 115 -700 0 -700 0 0 -540z"/>
<path d="M2152 3623 c4 -429 6 -444 71 -540 40 -58 137 -126 215 -150 87 -27
268 -24 344 6 118 46 200 123 243 228 18 44 20 79 23 446 l3 397 -130 0 -131
0 0 -352 c0 -208 -4 -368 -10 -390 -39 -139 -268 -158 -344 -28 -20 33 -21 53
-24 403 l-3 367 -130 0 -130 0 3 -387z"/>
<path d="M3220 3470 l0 -540 228 0 228 0 1 -22 c2 -16 0 -19 -6 -9 -7 11 -12
11 -30 0 -11 -8 -21 -17 -21 -20 0 -11 29 -19 47 -12 9 4 14 2 10 -3 -4 -7 27
-6 83 1 74 9 87 9 82 -3 -4 -12 -2 -12 16 -1 16 10 26 10 47 1 15 -7 24 -8 20
-2 -3 5 -1 10 5 10 6 0 9 4 6 9 -3 5 -16 7 -29 4 -15 -3 -18 -2 -9 5 10 7 10
12 -4 23 -15 13 -15 14 7 19 23 6 24 9 27 118 l3 113 -218 -1 -218 -2 -5 424
-5 423 -132 3 -133 3 0 -541z"/>
<path d="M4090 3470 l0 -540 153 0 c130 0 154 -2 154 -15 0 -8 -2 -13 -5 -10
-7 7 -42 -14 -42 -25 0 -6 8 -10 18 -10 14 0 15 2 2 10 -13 8 -13 10 2 10 9 0
20 -5 24 -11 5 -9 119 -8 159 2 9 2 35 -7 85 -28 8 -4 25 -7 37 -8 l23 -1 -22
23 c-12 13 -24 19 -28 13 -7 -11 -50 -2 -50 12 0 5 10 6 23 2 21 -6 21 -6 -3
14 l-25 21 103 1 102 0 0 54 c0 29 -3 80 -6 113 -6 57 -8 60 -33 61 -14 0
-110 0 -213 1 l-188 1 -2 423 -3 422 -132 3 -133 3 0 -541z m580 -610 c0 -5
-4 -10 -10 -10 -5 0 -10 5 -10 10 0 6 5 10 10 10 6 0 10 -4 10 -10z"/>
<path d="M85 2606 c-22 -7 -50 -18 -63 -25 l-22 -12 0 -724 0 -725 2700 0
2700 0 0 719 0 720 -57 28 c-46 22 -70 28 -120 27 -70 -2 -106 -17 -183 -79
-48 -38 -50 -40 -25 -43 14 -2 25 -5 25 -7 0 -2 -14 -28 -31 -57 -46 -77 -213
-376 -236 -422 -19 -38 -20 -41 -3 -70 10 -17 65 -116 122 -221 142 -256 149
-268 160 -282 22 -27 -5 -33 -147 -33 -103 0 -146 4 -152 12 -4 7 -56 105
-114 218 l-107 205 -51 3 -51 3 -2 -218 -3 -218 -132 -3 -133 -3 0 530 0 530
-47 7 c-60 8 -109 33 -167 83 -55 47 -103 65 -176 65 -61 -1 -138 -34 -178
-77 l-23 -24 70 -6 c126 -10 289 -74 344 -135 17 -19 16 -23 -43 -120 l-61
-101 -59 38 c-163 106 -359 89 -451 -39 -46 -62 -63 -130 -56 -224 6 -86 31
-148 84 -201 53 -55 104 -77 189 -83 91 -6 150 13 240 77 l68 48 68 -94 c37
-51 68 -97 68 -102 0 -17 -97 -90 -166 -125 -93 -46 -160 -61 -274 -60 -256 2
-446 129 -528 354 -29 78 -40 234 -23 325 26 144 134 296 260 367 l62 35 -39
16 c-21 8 -62 36 -91 60 -68 58 -145 81 -220 67 -62 -12 -85 -23 -133 -66 -53
-47 -112 -75 -171 -79 -29 -2 -53 -4 -54 -5 -3 0 320 -947 346 -1014 7 -17 8
-33 3 -38 -5 -5 -69 -7 -142 -6 l-133 3 -24 85 c-13 47 -28 96 -32 110 l-7 25
-165 0 -164 0 -27 -95 c-15 -52 -26 -100 -23 -107 6 -19 -20 -23 -156 -23
-116 0 -129 2 -129 18 0 9 18 69 39 132 22 63 99 288 171 500 73 212 135 396
139 410 7 24 11 25 109 30 l102 5 -47 41 c-60 51 -79 61 -140 74 -65 14 -132
-1 -190 -43 -24 -18 -58 -42 -75 -54 -21 -16 -26 -23 -14 -23 9 0 16 -6 17
-12 0 -7 1 -59 2 -115 l2 -103 -162 0 -163 0 0 -430 0 -430 -135 0 -135 0 0
430 0 430 -162 2 -163 3 -3 100 -3 100 -42 18 c-23 9 -65 35 -92 58 -64 53
-89 65 -153 72 -69 8 -140 -15 -195 -63 -23 -20 -51 -42 -62 -48 -17 -11 -16
-11 10 -5 17 5 75 7 130 7 107 -1 177 -20 260 -68 76 -45 76 -45 15 -162 -30
-57 -59 -104 -63 -104 -5 0 -23 11 -40 24 -18 13 -60 34 -94 45 -101 34 -166
26 -199 -24 -17 -26 -17 -29 0 -60 14 -25 36 -41 99 -70 197 -90 225 -104 269
-144 70 -62 93 -117 92 -221 -2 -129 -50 -217 -151 -277 -49 -28 -169 -63
-219 -63 -67 0 -202 33 -269 65 -66 32 -135 82 -135 97 0 4 32 52 71 107 l70
100 52 -36 c60 -43 150 -73 214 -73 36 0 50 6 74 29 28 28 29 32 16 63 -13 34
-43 51 -256 153 -117 56 -190 144 -207 251 -15 98 44 235 126 292 45 31 51 45
16 36 -40 -10 -127 22 -181 67 -27 22 -65 49 -85 59 -48 24 -127 31 -175 16z"/>
<path d="M1560 2610 c-50 -7 -93 -27 -130 -62 -14 -13 -36 -31 -50 -41 -23
-16 -14 -17 219 -17 l244 0 -39 35 c-78 71 -155 97 -244 85z"/>
<path d="M4447 2609 c-50 -12 -70 -23 -134 -75 l-54 -44 85 0 86 0 2 -207 3
-208 41 -1 c23 -1 46 1 51 5 5 3 38 60 73 126 35 66 83 156 107 199 l43 79
-42 38 c-88 78 -178 109 -261 88z"/>
<path d="M2497 2200 c-3 -8 -24 -83 -46 -166 -22 -83 -43 -159 -47 -168 -5
-14 6 -16 96 -16 87 0 101 2 96 15 -6 18 -83 300 -89 330 -3 15 -5 17 -10 5z"/>
</g>
</svg>
