<svg width="64" height="43" viewBox="" fill="none" xmlns="http://www.w3.org/2000/svg">
<g opacity="1">

<path fill-rule="evenodd" clip-rule="evenodd" d="M63.3529 0.488647L45.4859 12.9585C43.9299 14.0053 42.5928 15.3397 41.522 16.8121L38.1853 21.3905H37.8125L32.7423 19.6362C32.0442 19.3947 31.281 19.4177 30.6006 19.6995L22.9865 22.8342L24.4063 24.4792C24.9566 25.1177 25.7967 25.434 26.6427 25.3247L31.6596 24.6748L45.4504 33.3599L47.7104 31.8472C50.3076 30.1159 52.4907 27.8842 54.0881 25.2499L58.6495 17.7554L48.6392 23.0183L60.3179 14.5862C60.6492 14.3331 60.9095 14.0455 61.1343 13.6832C61.3591 13.3611 61.4656 12.9642 61.5425 12.6018L62.1342 8.74816L51.0116 14.5517L60.9095 7.37925C61.9448 6.62002 62.6489 5.50417 62.8382 4.24454L63.3529 0.488647Z" fill="orange"/>
<path fill-rule="evenodd" clip-rule="evenodd" d="M31.1147 37.852L34.061 39.1692C34.7769 39.4913 35.6052 39.4338 36.2737 39.0312L37.4333 38.3237L34.5284 35.8619L37.3859 37.1388C38.1018 37.4609 38.9301 37.4034 39.5986 37.0008L40.7878 36.2761L37.948 33.8718L40.7168 35.1085C41.4326 35.4306 42.2609 35.373 42.9294 34.9704L44.6866 33.8948L31.4638 25.5663L26.7722 26.176C26.5356 26.2047 26.2989 26.2105 26.0682 26.1932C25.1216 26.1242 24.2578 25.6296 23.6484 24.9221L21.5482 22.4891L25.5002 20.8614L22.5894 16.8466C21.5127 15.3339 20.1401 14.034 18.6256 12.993L0.758545 0.488647L1.35017 4.23879C1.53357 5.49842 2.2376 6.62001 3.27886 7.37349L13.1412 14.5459L2.0187 8.74241L2.61032 12.5961C2.68724 12.993 2.79373 13.3553 3.01855 13.6774C3.24336 14.0398 3.49776 14.3274 3.83498 14.5804L15.5491 23.047L5.53886 17.7842L9.98787 25.1004C11.6562 27.8382 13.9517 30.1792 16.6969 31.9105L30.4521 40.9925C31.2153 41.4987 32.2152 41.5159 32.9961 41.0385L34.0965 40.3656L31.1147 37.852Z" fill="orange"/>
<path fill-rule="evenodd" clip-rule="evenodd" d="M29.7186 11.7281H28.0858L28.7898 7.19001H29.0146L29.7186 11.7281ZM27.0859 7.18425H28.0858V7.25903L27.6066 7.54662L26.4588 15.1849H27.6066L27.9793 12.8037H29.979L30.3517 15.1849H31.4994L30.0559 6.06842H27.1273V7.18425H27.0859ZM33.9073 6.10293H32.0911V7.21877H33.2388V7.29354L32.7596 7.58113V15.1849H33.9073V10.8596H34.499L36.5756 15.1849H37.8357L35.4988 10.3535L37.5754 6.10293H36.2798L34.499 9.74379H33.9073V6.10293Z" fill="orange"/>
</g>
</svg>
